<svg width="245" height="255" viewBox="0 0 245 255" fill="none" xmlns="http://www.w3.org/2000/svg">
<path opacity="0.2" d="M231.362 2.70682C225.503 4.21451 213.126 6.94174 203.899 8.73631C180.391 13.2583 176.656 14.6228 166.184 22.2313C151.318 33.0699 140.918 54.0308 140.992 73.0527C141.065 80.3022 142.164 85.4713 143.409 84.1071C143.702 83.7479 144.728 81.6665 145.605 79.5128C150.073 68.9611 163.034 52.8822 174.094 44.1963C179.733 39.7455 191.084 35.3669 191.084 37.6641C191.084 38.4535 187.202 43.1911 182.589 47.9288C178.268 52.4508 176.803 54.3178 168.675 65.8746C160.253 78.0052 149.268 99.6834 141.872 118.992C134.694 137.727 129.421 152.658 125.906 163.855C119.974 183.021 114.629 198.167 113.676 198.454C112.505 198.884 109.282 188.619 102.545 163.137C92.0727 123.226 87.6051 109.516 76.9135 84.5364C69.5901 67.5247 59.9233 53.8852 40.2966 32.9975C29.5315 21.4406 14.2253 10.3864 4.99838 7.37213C-1.00626 5.36188 -1.5197 6.36707 3.02134 11.3205C24.4056 34.9367 36.7824 52.451 49.891 77.3593C60.9491 98.535 68.5654 119.567 82.4069 167.804C85.9221 180.15 93.6854 211.59 96.1748 223.793C98.9583 237.36 102.034 250.64 102.839 252.721C103.132 253.367 104.23 254.229 105.329 254.515C107.819 255.162 119.829 255.162 122.393 254.515C126.201 253.439 126.933 250.496 132.206 216.615C135.721 193.717 138.724 180.007 144.729 159.549C154.908 124.663 165.747 99.1087 172.338 94.9458C173.29 94.371 177.977 93.2225 182.884 92.433C201.925 89.3465 217.231 81.0918 228.069 67.955C235.319 59.1979 237.224 52.7377 239.054 31.203C240.006 19.7896 240.592 16.5596 242.789 9.74045C244.18 5.28963 245.132 1.27011 244.985 0.767548C244.471 -0.523392 243.299 -0.379745 231.362 2.70682Z" fill="#92C03C"/>
</svg>
