<svg width="185" height="271" viewBox="0 0 185 271" fill="none" xmlns="http://www.w3.org/2000/svg">
<g opacity="0.2">
<path d="M44.0659 211.139L44.0661 211.138C46.373 196.961 56.1705 188.66 67.5635 179.008C68.6659 178.074 69.7833 177.127 70.9103 176.161C83.42 165.44 96.2712 152.758 96.2712 129.259C96.2712 128.181 96.2422 127.109 96.1854 126.046C97.5151 127.294 98.9793 128.768 100.549 130.448C105.941 136.22 112.353 144.181 118.503 153.137C124.654 162.094 130.481 171.955 134.756 181.518C139.061 191.15 141.644 200.158 141.644 207.507C141.644 238.731 118.524 263.441 90.7093 263.441C71.3173 263.441 58.9187 255.947 51.7248 245.965C44.4195 235.829 42.1809 222.704 44.0659 211.139Z" stroke="#FFEEA3" stroke-width="8"/>
<mask id="path-2-inside-1" fill="white">
<path d="M92.535 271C41.9081 271 0.716125 231.013 0.716125 181.855C0.716125 148.18 22.0466 117.636 42.6711 88.0896C62.6966 59.4135 81.6095 32.3207 81.6095 3.56624C81.6095 2.33961 82.2371 1.19143 83.2783 0.542453C84.3195 -0.099388 85.6246 -0.184967 86.73 0.357032C107.412 10.384 136.544 43.4531 136.544 85.5793C136.544 97.0112 135.089 108.308 133.991 115.211C147.619 106.903 147.798 89.3447 147.798 89.145C147.798 87.6118 148.782 86.2496 150.237 85.7647C151.699 85.2797 153.296 85.7718 154.216 87.0056C155.45 88.6458 184.347 127.798 184.347 181.855C184.354 231.013 143.162 271 92.535 271ZM88.4986 9.52823C86.1166 38.3326 67.0254 65.6751 48.5262 92.176C28.5221 120.809 7.84769 150.427 7.84769 181.855C7.84769 227.077 45.8376 263.868 92.535 263.868C139.233 263.868 177.222 227.077 177.222 181.855C177.222 143.673 161.654 112.615 153.453 98.8868C151.157 107.637 145.302 119.818 130.411 124.632C129.213 125.031 127.879 124.746 126.938 123.897C125.989 123.049 125.568 121.765 125.825 120.517C125.861 120.346 129.427 102.816 129.427 85.5793C129.42 50.2423 106.534 21.0885 88.4986 9.52823Z"/>
</mask>
<path d="M42.6711 88.0896L30.373 79.5014L30.3714 79.5038L42.6711 88.0896ZM83.2783 0.542453L75.4071 -12.2264L75.3755 -12.2069L75.344 -12.1873L83.2783 0.542453ZM86.73 0.357032L80.1262 13.8252L80.1561 13.8398L80.1861 13.8544L86.73 0.357032ZM133.991 115.211L119.177 112.854L114.076 144.919L141.799 128.019L133.991 115.211ZM150.237 85.7647L145.514 71.5275L145.504 71.531L145.493 71.5344L150.237 85.7647ZM154.216 87.0056L142.191 95.9722L142.21 95.9972L142.229 96.0222L154.216 87.0056ZM184.347 181.855H169.347V181.858L184.347 181.855ZM88.4986 9.52823L96.593 -3.10031L75.6042 -16.5534L73.5496 8.29204L88.4986 9.52823ZM48.5262 92.176L60.8225 100.767L60.8258 100.762L48.5262 92.176ZM153.453 98.8868L166.33 91.1939L148.011 60.5295L138.944 95.0793L153.453 98.8868ZM130.411 124.632L125.797 110.359L125.732 110.38L125.667 110.401L130.411 124.632ZM126.938 123.897L136.982 112.756L136.961 112.737L136.94 112.719L126.938 123.897ZM125.825 120.517L111.14 117.457L111.137 117.476L111.133 117.494L125.825 120.517ZM129.427 85.5793H144.427V85.5762L129.427 85.5793ZM92.535 256C49.7707 256 15.7161 222.314 15.7161 181.855H-14.2839C-14.2839 239.713 34.0454 286 92.535 286V256ZM15.7161 181.855C15.7161 153.801 33.5932 127.3 54.9709 96.6754L30.3714 79.5038C10.5001 107.971 -14.2839 142.559 -14.2839 181.855H15.7161ZM54.9692 96.6777C64.8503 82.5282 75.1966 67.7524 82.9673 52.7598C90.7903 37.6666 96.6095 21.2576 96.6095 3.56624H66.6095C66.6095 14.6293 62.9723 26.144 56.3324 38.9548C49.6403 51.8663 40.5174 64.9749 30.373 79.5014L54.9692 96.6777ZM96.6095 3.56624C96.6095 7.43668 94.6346 11.1393 91.2126 13.2722L75.344 -12.1873C69.8395 -8.75643 66.6095 -2.75746 66.6095 3.56624H96.6095ZM91.1495 13.3113C87.9751 15.2681 83.8216 15.6371 80.1262 13.8252L93.3337 -13.1111C87.4275 -16.007 80.6638 -15.4669 75.4071 -12.2264L91.1495 13.3113ZM80.1861 13.8544C87.6799 17.4876 98.2292 26.2417 106.916 39.2577C115.465 52.0673 121.544 68.0175 121.544 85.5793H151.544C151.544 61.0149 143.057 39.3674 131.869 22.6042C120.819 6.04736 106.462 -6.74653 93.2738 -13.1403L80.1861 13.8544ZM121.544 85.5793C121.544 95.8907 120.217 106.315 119.177 112.854L148.805 117.568C149.961 110.3 151.544 98.1317 151.544 85.5793H121.544ZM141.799 128.019C152.777 121.326 157.904 111.156 160.289 103.716C162.671 96.2843 162.798 90.17 162.798 89.145H132.798C132.798 88.3197 132.835 91.0842 131.721 94.5581C130.61 98.0246 128.834 100.787 126.183 102.403L141.799 128.019ZM162.798 89.145C162.798 94.0851 159.634 98.4435 154.98 99.9949L145.493 71.5344C137.929 74.0557 132.798 81.1384 132.798 89.145H162.798ZM154.959 100.002C150.371 101.524 145.188 99.9914 142.191 95.9722L166.241 78.039C161.404 71.5522 153.026 69.0357 145.514 71.5275L154.959 100.002ZM142.229 96.0222C142.228 96.0217 142.236 96.0318 142.251 96.0526C142.266 96.0731 142.288 96.1029 142.317 96.142C142.374 96.2202 142.457 96.3339 142.564 96.4825C142.776 96.7796 143.083 97.2141 143.468 97.7804C144.24 98.9134 145.328 100.569 146.624 102.703C149.22 106.978 152.63 113.133 156.017 120.821C162.816 136.256 169.347 157.469 169.347 181.855H199.347C199.347 122.868 168.06 80.4568 166.203 77.9889L142.229 96.0222ZM169.347 181.858C169.353 222.314 135.3 256 92.535 256V286C151.024 286 199.355 239.713 199.347 181.853L169.347 181.858ZM73.5496 8.29204C72.5934 19.855 68.2107 31.827 61.3412 44.6195C54.4463 57.4594 45.5779 70.1937 36.2265 83.59L60.8258 100.762C69.9736 87.6573 79.9005 73.47 87.7715 58.8123C95.668 44.1073 102.022 28.0059 103.448 10.7644L73.5496 8.29204ZM36.2298 83.5853C26.3463 97.7322 15.5609 113.134 7.3461 129.107C-0.908296 145.157 -7.15231 162.851 -7.15231 181.855H22.8477C22.8477 169.431 26.9409 156.602 34.0247 142.828C41.1481 128.977 50.7019 115.253 60.8225 100.767L36.2298 83.5853ZM-7.15231 181.855C-7.15231 235.811 38.0104 278.868 92.535 278.868V248.868C53.6647 248.868 22.8477 218.343 22.8477 181.855H-7.15231ZM92.535 278.868C147.06 278.868 192.222 235.811 192.222 181.855H162.222C162.222 218.343 131.405 248.868 92.535 248.868V278.868ZM192.222 181.855C192.222 139.808 175.175 105.999 166.33 91.1939L140.576 106.58C148.134 119.231 162.222 147.538 162.222 181.855H192.222ZM138.944 95.0793C137.273 101.449 133.743 107.79 125.797 110.359L135.025 138.904C156.86 131.846 165.041 113.825 167.962 102.694L138.944 95.0793ZM125.667 110.401C129.663 109.07 133.964 110.035 136.982 112.756L116.894 135.038C121.795 139.456 128.762 140.993 135.154 138.862L125.667 110.401ZM136.94 112.719C139.995 115.452 141.33 119.588 140.518 123.539L111.133 117.494C109.806 123.942 111.983 130.645 116.936 135.076L136.94 112.719ZM140.51 123.576C140.598 123.154 144.427 104.402 144.427 85.5793H114.427C114.427 101.23 111.124 117.537 111.14 117.457L140.51 123.576ZM144.427 85.5762C144.418 44.1518 118.038 10.645 96.593 -3.10031L80.4041 22.1568C95.0309 31.532 114.421 56.3329 114.427 85.5823L144.427 85.5762Z" fill="#C74343" mask="url(#path-2-inside-1)"/>
</g>
</svg>
