<svg width="26" height="31" viewBox="0 0 26 31" fill="none" xmlns="http://www.w3.org/2000/svg">
<path d="M3.57693 0C1.60217 0 0 1.55467 0 3.47089V26.6101C0 28.5264 1.60217 30.081 3.57693 30.081H20.2693C22.244 30.081 23.8462 28.5264 23.8462 26.6101V20.6084L21.4616 22.6331V26.6101C21.4616 27.2474 20.926 27.7671 20.2693 27.7671H3.57693C2.92023 27.7671 2.38462 27.2474 2.38462 26.6101V3.47089C2.38462 2.83365 2.92023 2.31392 3.57693 2.31392H20.2693C20.926 2.31392 21.4616 2.83365 21.4616 3.47089V7.44794L23.8462 9.47263V3.47089C23.8462 1.55467 22.244 0 20.2693 0H3.57693ZM16.0962 7.4841C15.7981 7.56997 15.5 7.86373 15.5 8.64106V11.5696H8.34616C7.68946 11.5696 7.15385 12.0894 7.15385 12.7266V17.3544C7.15385 17.9917 7.68946 18.5114 8.34616 18.5114H15.5V21.4038C15.5 22.8862 16.6923 22.5608 16.6923 22.5608L25.6346 15.0405L16.6923 7.52025C16.6923 7.52025 16.3942 7.39823 16.0962 7.4841Z" fill="url(#paint0_radial)"/>
<defs>
<radialGradient id="paint0_radial" cx="0" cy="0" r="1" gradientUnits="userSpaceOnUse" gradientTransform="translate(12.8173 13.7695) rotate(36.6396) scale(15.9736 197.945)">
<stop offset="0.302083" stop-color="#00FE38"/>
<stop offset="1" stop-color="#1C3D92"/>
</radialGradient>
</defs>
</svg>
