<svg width="75" height="74" viewBox="0 0 75 74" fill="none" xmlns="http://www.w3.org/2000/svg">
<path d="M55.5176 15.1836C54.8802 15.2132 54.2799 15.3985 53.7462 15.606H53.7388C53.1977 15.821 50.6258 16.9031 46.7198 18.5411C42.8137 20.1866 37.744 22.3212 32.7113 24.441C22.6609 28.6732 12.7809 32.8386 12.7809 32.8386L12.8994 32.7941C12.8994 32.7941 12.2176 33.0165 11.506 33.5057C11.1428 33.7429 10.7426 34.069 10.3942 34.5804C10.0459 35.0918 9.76423 35.8775 9.868 36.6854C10.0385 38.0566 10.9279 38.8793 11.5653 39.3314C12.2101 39.7909 12.8253 40.0059 12.8253 40.0059H12.8402L22.105 43.1263C22.52 44.4604 24.9289 52.3763 25.507 54.1996C25.848 55.2891 26.1815 55.971 26.5966 56.4899C26.7967 56.7567 27.0339 56.979 27.3155 57.1569C27.4267 57.2236 27.5453 57.2755 27.6639 57.32C27.7009 57.3422 27.738 57.3496 27.7825 57.357L27.6861 57.3348C27.7157 57.3422 27.738 57.3645 27.7602 57.3719C27.8343 57.3941 27.8862 57.4015 27.9826 57.4163C29.4501 57.8611 30.6286 56.9494 30.6286 56.9494L30.6953 56.8975L36.1653 51.9167L45.3337 58.9506L45.5413 59.0395C47.4535 59.8771 49.388 59.4101 50.4109 58.5874C51.4411 57.7573 51.8414 56.6974 51.8414 56.6974L51.9081 56.5269L58.9938 20.231C59.1939 19.3342 59.2458 18.4967 59.0234 17.6814C58.8011 16.8661 58.2304 16.1026 57.5411 15.695C56.8444 15.2799 56.1551 15.1539 55.5176 15.1836ZM55.3249 19.0748C55.3175 19.1934 55.3397 19.1786 55.2879 19.4083V19.4306L48.2688 55.3484C48.2392 55.4003 48.1873 55.5115 48.0465 55.6227C47.8982 55.7413 47.7797 55.8154 47.1645 55.5708L35.9503 46.973L29.1759 53.1471L30.599 44.0602C30.599 44.0602 48.1651 27.6874 48.9211 26.9832C49.6771 26.2791 49.4251 26.1309 49.4251 26.1309C49.477 25.2711 48.2837 25.8789 48.2837 25.8789L25.1809 40.1912L25.1735 40.1541L14.1002 36.426V36.4185C14.0928 36.4185 14.0779 36.4111 14.0705 36.4111C14.0779 36.4111 14.1298 36.3889 14.1298 36.3889L14.1891 36.3593L14.2484 36.337C14.2484 36.337 24.1358 32.1716 34.1863 27.9394C39.219 25.8196 44.2887 23.685 48.1873 22.0395C52.0859 20.4015 54.9692 19.2008 55.1322 19.1341C55.2879 19.0748 55.2137 19.0748 55.3249 19.0748Z" fill="#1C3D92"/>
<circle cx="37.359" cy="37" r="36" stroke="#1C3D92" stroke-width="2"/>
</svg>
