<svg width="74" height="74" viewBox="0 0 74 74" fill="none" xmlns="http://www.w3.org/2000/svg">
<path d="M62.6173 21.8224C60.8014 22.6288 58.8509 23.1715 56.8035 23.4162C58.8945 22.1639 60.4978 20.1811 61.253 17.8169C59.2987 18.9762 57.1318 19.8187 54.8245 20.2741C52.9783 18.3064 50.3485 17.0769 47.4378 17.0769C41.8479 17.0769 37.3169 21.6099 37.3169 27.1978C37.3169 27.991 37.4079 28.7651 37.5787 29.5032C29.1674 29.082 21.7105 25.0518 16.7164 18.9269C15.8474 20.4221 15.3484 22.1601 15.3484 24.0177C15.3484 27.528 17.1338 30.6265 19.8491 32.4404C18.1907 32.3873 16.6291 31.9319 15.2649 31.1749C15.2649 31.2185 15.2649 31.2583 15.2649 31.302C15.2649 36.2069 18.7524 40.2977 23.384 41.2256C22.5358 41.4571 21.6403 41.5804 20.7162 41.5804C20.0654 41.5804 19.4297 41.5159 18.8131 41.4001C20.1014 45.4208 23.8394 48.3485 28.268 48.4301C24.8052 51.1454 20.4411 52.7639 15.6975 52.7639C14.8816 52.7639 14.0752 52.7164 13.2821 52.6216C17.7619 55.4924 23.0804 57.1678 28.7974 57.1678C47.415 57.1678 57.5929 41.7455 57.5929 28.3704C57.5929 27.9321 57.5834 27.4957 57.5644 27.0612C59.5434 25.6324 61.2606 23.8508 62.6173 21.8224Z" fill="#1C3D92"/>
<circle cx="37" cy="37" r="36" stroke="#1C3D92" stroke-width="2"/>
</svg>
