<svg width="223" height="223" viewBox="0 0 223 223" fill="none" xmlns="http://www.w3.org/2000/svg">
<path opacity="0.2" d="M148.086 0C127.506 0 111.5 16.8049 111.5 37.1667H130.083C130.083 25.7336 136.871 18.5833 148.086 18.5833C159.12 18.5833 167.25 26.7135 167.25 37.7474C167.25 48.7813 159.519 55.75 148.086 55.75H0V74.3333H148.086C168.448 74.3333 185.833 58.5085 185.833 37.7474C185.833 16.9863 168.847 0 148.086 0ZM0 102.208V120.792H181.188C194.109 120.792 204.417 131.1 204.417 144.021C204.417 156.942 194.109 167.25 181.188 167.25C174.291 167.25 168.92 165.036 164.927 160.862C160.935 156.688 157.958 150.118 157.958 139.375H139.375C139.375 153.712 143.767 165.472 151.57 173.638C159.374 181.805 170.117 185.833 181.188 185.833C204.163 185.833 223 166.996 223 144.021C223 121.046 204.163 102.208 181.188 102.208H0ZM0 148.667V167.25H73.7526C85.0042 167.25 92.9167 174.799 92.9167 185.833C92.9167 197.049 85.5487 204.417 74.3333 204.417C63.118 204.417 55.75 197.049 55.75 185.833H37.1667C37.1667 206.413 53.7537 223 74.3333 223C94.9129 223 111.5 206.413 111.5 185.833C111.5 165.072 94.3322 148.667 73.7526 148.667H0Z" fill="#20A0E9"/>
</svg>
